Coordinates
version=1
nRows=29
nColumns=22
inDegrees=yes

Units are S.I. units (second, meters, Newtons, ...)
If the header above contains a line with 'inDegrees', this indicates whether rotational values are in degrees (yes) or radians (no).

endheader
time	pelvis_tilt	pelvis_list	pelvis_rotation	pelvis_tx	pelvis_ty	pelvis_tz	hip_flexion_r	hip_adduction_r	hip_rotation_r	knee_angle_r	ankle_angle_r	subtalar_angle_r	hip_flexion_l	hip_adduction_l	hip_rotation_l	knee_angle_l	ankle_angle_l	subtalar_angle_l	lumbar_extension	lumbar_bending	lumbar_rotation
      1.82000000	      8.80153727	      0.95932125	     58.54326432	      0.92194351	      0.90706414	      0.79558133	     17.66381959	     -1.36689338	     -9.35209359	     -5.08207893	      0.09114777	     18.31338215	    -16.65435703	      0.85074438	     13.15949346	    -20.13325085	     30.93694328	    -19.30715884	    -13.90758508	      6.66095093	    -14.23368795
      1.83000000	      9.18442820	      0.97367425	     59.36333190	      0.92984610	      0.90570947	      0.78738112	     17.50406589	     -0.69915598	     -8.67063153	     -5.41266981	      0.28435724	     18.19361683	    -17.19542910	      0.13240737	     13.40190744	    -20.93379641	     31.04546383	    -19.10217451	    -13.90045259	      7.00851978	    -14.37133591
      1.84000000	      9.54964561	      1.00525302	     60.17151984	      0.93779651	      0.90453765	      0.77892187	     17.40369766	     -0.07123453	     -7.97350991	     -6.21473543	      0.31762092	     17.57165092	    -17.69896284	     -0.56471544	     13.61016104	    -21.80612009	     30.94993830	    -18.80189899	    -13.86286933	      7.34126139	    -14.54467728
      1.85000000	      9.88165324	      1.02279566	     60.97284719	      0.94579296	      0.90350642	      0.77020957	     17.38702456	      0.52386548	     -7.26181091	     -7.39094198	      0.12205894	     16.62295265	    -18.10301094	     -1.24005372	     13.78947624	    -22.79439170	     30.67136167	    -18.45732428	    -13.75523463	      7.66009197	    -14.73605287
      1.86000000	     10.15785053	      1.04793601	     61.75867496	      0.95386158	      0.90266778	      0.76123506	     17.43370875	      1.06122080	     -6.51192898	     -8.84816686	     -0.25799180	     15.34595077	    -18.42833916	     -1.86814553	     13.90834017	    -23.85938839	     30.07386341	    -17.96117367	    -13.58139623	      7.92496015	    -15.00190006
      1.87000000	     10.39651204	      1.06770559	     62.54149481	      0.96194506	      0.90203737	      0.75205707	     17.52308685	      1.56123421	     -5.76507334	    -10.46579184	     -0.87583262	     13.99366836	    -18.62563004	     -2.46473978	     13.98749298	    -25.08128429	     29.21723161	    -17.33569850	    -13.35750620	      8.15638855	    -15.25337956
      1.88000000	     10.61021921	      1.09682554	     63.31635604	      0.97006078	      0.90167497	      0.74261640	     17.63551201	      2.01891034	     -5.10577297	    -12.21285927	     -1.48164884	     12.63056221	    -18.73582591	     -3.04309755	     13.98798605	    -26.40883576	     27.98152513	    -16.52927170	    -13.09473890	      8.35942160	    -15.52194847
      1.89000000	     10.78997159	      1.13361702	     64.09348295	      0.97813867	      0.90158723	      0.73300149	     17.75398295	      2.42215154	     -4.52924005	    -14.00763195	     -2.04982475	     11.40873934	    -18.70646141	     -3.58938675	     13.93887010	    -27.90514550	     26.37646859	    -15.53484094	    -12.80690601	      8.52534541	    -15.77587027
      1.90000000	     10.95978528	      1.19234605	     64.87544792	      0.98611259	      0.90181090	      0.72318067	     17.83076935	      2.77376615	     -4.10240281	    -15.80741640	     -2.38705839	     10.39878030	    -18.55809311	     -4.11514213	     13.84615869	    -29.56104748	     24.34657789	    -14.33183713	    -12.52251489	      8.68055153	    -15.99366885
      1.91000000	     11.10932559	      1.28414503	     65.65933203	      0.99396461	      0.90233751	      0.71322608	     17.84285124	      3.05954655	     -3.83762467	    -17.57697491	     -2.43766530	      9.67359588	    -18.27322253	     -4.60405181	     13.71532452	    -31.39220962	     21.87800894	    -12.96528840	    -12.26128293	      8.80174974	    -16.20723988
      1.92000000	     11.26561450	      1.41660956	     66.45196434	      1.00163193	      0.90316311	      0.70316736	     17.73034614	      3.30097909	     -3.75301125	    -19.24018483	     -2.17101818	      9.18977659	    -17.85038387	     -5.07390223	     13.57178936	    -33.41444406	     18.97604979	    -11.44727193	    -12.05644213	      8.92109926	    -16.38836584
      1.93000000	     11.42621981	      1.58579789	     67.25704733	      1.00905413	      0.90423301	      0.69308612	     17.47513012	      3.50090146	     -3.84499591	    -20.74081387	     -1.62541380	      8.89465882	    -17.26101779	     -5.51571475	     13.45625240	    -35.64170764	     15.69874478	     -9.85248517	    -11.91821178	      9.04177013	    -16.53672582
      1.94000000	     11.60314355	      1.77731093	     68.07618076	      1.01619524	      0.90548291	      0.68306594	     17.06276381	      3.68830709	     -4.08704733	    -22.01723907	     -0.87470762	      8.70027695	    -16.47739217	     -5.93715690	     13.40192044	    -38.08416757	     12.17180220	     -8.25481638	    -11.85140063	      9.18662478	    -16.64877002
      1.95000000	     11.77862992	      1.97724060	     68.90984392	      1.02301193	      0.90681184	      0.67320998	     16.52962252	      3.84923577	     -4.51731412	    -23.07264789	      0.02977233	      8.55069733	    -15.46343244	     -6.31359309	     13.44072263	    -40.74634164	      8.57396266	     -6.81318569	    -11.84938358	      9.34204232	    -16.70373184
      1.96000000	     11.97752467	      2.15706103	     69.74732416	      1.02953647	      0.90813952	      0.66360106	     15.88410785	      4.04546931	     -5.04231767	    -23.86542114	      0.98793213	      8.37409494	    -14.20343797	     -6.66917101	     13.57296367	    -43.61753766	      5.12409702	     -5.55742746	    -11.90090408	      9.54359229	    -16.71924715
      1.97000000	     12.18191108	      2.29971013	     70.58132438	      1.03574570	      0.90936330	      0.65427265	     15.18413758	      4.25708576	     -5.70816275	    -24.44128754	      1.96713230	      8.16305987	    -12.68473752	     -6.97259752	     13.80304390	    -46.67178126	      2.06835366	     -4.62800234	    -11.98351398	      9.77944992	    -16.63448782
      1.98000000	     12.39595245	      2.40613638	     71.42268921	      1.04162431	      0.91044995	      0.64524201	     14.44497128	      4.48859726	     -6.50982973	    -24.82123240	      2.88869816	      7.94293764	    -10.93018885	     -7.21526280	     14.14290712	    -49.86486880	     -0.38240766	     -4.11845047	    -12.09561509	     10.05350756	    -16.49124310
      1.99000000	     12.62591743	      2.44101856	     72.19299508	      1.04738528	      0.91135694	      0.63656002	     13.70936777	      4.81477047	     -7.21872888	    -25.00565229	      3.78583839	      7.57219124	     -8.96179764	     -7.41791281	     14.46661366	    -53.11890403	     -2.13337713	     -3.75134481	    -12.20487725	     10.35943145	    -16.20932406
      2.00000000	     12.87040552	      2.45776178	     72.96431506	      1.05287156	      0.91215622	      0.62813224	     12.94928191	      5.16880766	     -8.01563399	    -25.05162257	      4.56056154	      7.20973862	     -6.85220265	     -7.56876284	     14.82657845	    -56.36155748	     -3.05314674	     -3.76692377	    -12.34746779	     10.69361496	    -15.86848242
      2.01000000	     13.09124258	      2.42793391	     73.68126229	      1.05824463	      0.91285185	      0.61996569	     12.21005200	      5.56290791	     -8.70225273	    -24.96393625	      5.30290696	      6.67723616	     -4.61039297	     -7.64864338	     15.13364267	    -59.50292377	     -3.21528641	     -4.10570306	    -12.47303740	     10.99952795	    -15.41712674
      2.02000000	     13.30837222	      2.40538928	     74.36754784	      1.06346081	      0.91356510	      0.61197666	     11.44202694	      5.98238271	     -9.34491202	    -24.77839907	      5.95054006	      6.12119586	     -2.33175728	     -7.69312627	     15.35844231	    -62.45875001	     -2.66318272	     -4.81214821	    -12.63313619	     11.29010099	    -14.90819395
      2.03000000	     13.50921615	      2.39487833	     75.02461707	      1.06853386	      0.91434730	      0.60411736	     10.65216363	      6.41048565	     -9.93442314	    -24.51850306	      6.46123360	      5.57690110	     -0.04632741	     -7.70785517	     15.48298240	    -65.16282577	     -1.55578746	     -5.82746332	    -12.81673256	     11.54778190	    -14.34926323
      2.04000000	     13.66020983	      2.41966328	     75.62892728	      1.07352246	      0.91528692	      0.59631905	      9.80972884	      6.81843603	    -10.38408330	    -24.17184412	      6.97327136	      4.96928826	      2.18544269	     -7.66571919	     15.47273636	    -67.54017882	     -0.05709523	     -7.34245592	    -13.02765771	     11.72023078	    -13.73263659
      2.05000000	     13.73674277	      2.51852736	     76.17917196	      1.07840071	      0.91646738	      0.58851866	      8.87797066	      7.16330838	    -10.68648312	    -23.75289698	      7.47480496	      4.36967472	      4.28771059	     -7.53253404	     15.33130426	    -69.53363978	      1.72603475	     -9.30386651	    -13.29172383	     11.77096996	    -13.08764825
      2.06000000	     13.76793000	      2.62956483	     76.69639770	      1.08314846	      0.91777294	      0.58072689	      7.94094221	      7.46250228	    -10.97012952	    -23.31358592	      7.84559530	      3.85041972	      6.33165532	     -7.37299435	     15.06876624	    -71.16714638	      3.62477998	    -11.53611501	    -13.54723818	     11.75961291	    -12.41451233
      2.07000000	     13.73820566	      2.77623846	     77.17040011	      1.08780745	      0.91926375	      0.57284913	      6.92345656	      7.71070698	    -11.15229868	    -22.76809699	      8.16680897	      3.40077411	      8.25016960	     -7.16203589	     14.68893666	    -72.39772459	      5.58731089	    -13.99253297	    -13.79497194	     11.65954542	    -11.75631084
      2.08000000	     13.59928301	      3.00590655	     77.57695126	      1.09229317	      0.92094692	      0.56494662	      5.84628792	      7.81370991	    -11.28724306	    -22.24229982	      8.47864074	      3.02823013	      9.97666436	     -6.80791981	     14.19143560	    -73.21724982	      7.57467427	    -16.59606139	    -14.10283929	     11.41030760	    -11.06286402
      2.09000000	     13.41413345	      3.24345783	     77.93989616	      1.09669322	      0.92269621	      0.55697220	      4.72794855	      7.86310993	    -11.41563601	    -21.64655861	      8.73041030	      2.75672283	     11.59014070	     -6.43130449	     13.58277719	    -73.65553431	      9.45765225	    -19.09284128	    -14.38341155	     11.09948371	    -10.36961751
      2.10000000	     13.17552541	      3.49817087	     78.25374794	      1.10097605	      0.92446721	      0.54893025	      3.57000621	      7.84087227	    -11.54834468	    -21.00354369	      8.95382206	      2.58175088	     13.07292770	     -6.00699073	     12.87696600	    -73.72616806	     11.19315057	    -21.33890783	    -14.64938496	     10.72325136	     -9.68016886
